<svg width="93" fill="none" xmlns="http://www.w3.org/2000/svg" height="24" viewBox="0 0 93 24">
<path d="M35.5714 20.4438V18.7436C35.1181 19.2726 34.3813 19.7826 33.3423 20.2549C32.3033 20.7272 31.2265 20.9539 30.0931 20.9539C28.6196 20.9539 27.2217 20.5383 25.8993 19.726C24.5769 18.9137 23.519 17.7991 22.7256 16.4012C21.9322 15.0032 21.5166 13.492 21.5166 11.8485C21.5166 10.205 21.9322 8.69368 22.7445 7.31464C23.5568 5.93561 24.6714 4.82104 26.0693 4.02762C27.4672 3.21531 28.9785 2.8186 30.622 2.8186C32.2655 2.8186 33.739 3.21531 35.0992 4.02762C36.4404 4.83993 37.4983 5.93561 38.2728 7.31464C39.0474 8.69368 39.4252 10.205 39.4252 11.8485V20.4438H35.5714ZM26.2204 14.701C26.6738 15.5511 27.2972 16.2312 28.0906 16.7223C28.8652 17.2135 29.7153 17.478 30.622 17.478C31.5288 17.478 32.3789 17.2324 33.1534 16.7223C33.9279 16.2312 34.5513 15.5511 35.0236 14.701C35.477 13.8509 35.7226 12.8875 35.7226 11.8485C35.7226 10.8095 35.4959 9.88381 35.0236 9.01483C34.5702 8.16473 33.9468 7.48466 33.1534 6.99349C32.3789 6.50233 31.5288 6.25675 30.622 6.25675C29.7153 6.25675 28.8652 6.50233 28.0906 6.99349C27.3161 7.48466 26.6927 8.14584 26.2204 9.01483C25.7671 9.86492 25.5215 10.8095 25.5215 11.8485C25.5404 12.9064 25.7671 13.8509 26.2204 14.701Z" fill="#2233B0"/>
<path d="M46.1125 19.726C44.7146 18.9137 43.6 17.7991 42.7877 16.4012C41.9754 15.0032 41.5598 13.492 41.5598 11.8485C41.5598 10.205 41.9754 8.69368 42.7877 7.31464C43.6 5.93561 44.7146 4.82104 46.1125 4.02762C47.5105 3.21531 49.0217 2.8186 50.6652 2.8186C52.3087 2.8186 53.82 3.21531 55.218 4.02762C56.6159 4.83993 57.7116 5.93561 58.5428 7.31464C59.3551 8.69368 59.7707 10.205 59.7707 11.8485C59.7707 13.492 59.3551 15.0032 58.5428 16.4012C57.7304 17.7991 56.6159 18.9137 55.218 19.726C53.82 20.5383 52.3087 20.9539 50.6652 20.9539C49.0217 20.935 47.5105 20.5383 46.1125 19.726ZM46.2637 14.701C46.717 15.5511 47.3404 16.2312 48.1339 16.7223C48.9084 17.2135 49.7585 17.478 50.6652 17.478C51.572 17.478 52.4221 17.2324 53.1966 16.7223C53.9711 16.2312 54.5945 15.5511 55.0668 14.701C55.5202 13.8509 55.7658 12.8875 55.7658 11.8485C55.7658 10.8095 55.5391 9.88381 55.0668 9.01483C54.6134 8.16473 53.99 7.48466 53.1966 6.99349C52.4221 6.50233 51.572 6.25675 50.6652 6.25675C49.7585 6.25675 48.9084 6.50233 48.1339 6.99349C47.3593 7.48466 46.7359 8.14584 46.2637 9.01483C45.8103 9.86492 45.5647 10.8095 45.5647 11.8485C45.5647 12.9064 45.7914 13.8509 46.2637 14.701Z" fill="#2233B0"/>
<path d="M63.6433 4.51885C64.8146 3.30983 66.4959 2.70532 68.6872 2.70532C70.8408 2.70532 72.6165 3.44207 74.0522 4.89667C75.469 3.44207 77.2826 2.70532 79.4739 2.70532C81.6464 2.70532 83.3088 3.30983 84.4611 4.51885C85.6135 5.72787 86.1991 7.48473 86.1991 9.77053V20.4439H82.3264V9.35493C82.3264 8.41038 82.0242 7.65475 81.4386 7.06913C80.853 6.48351 80.0784 6.18125 79.1528 6.18125C78.2082 6.18125 77.4526 6.48351 76.867 7.06913C76.2814 7.65475 75.9791 8.42927 75.9791 9.35493V20.4439H72.1065V9.35493C72.1065 8.41038 71.8042 7.65475 71.2186 7.06913C70.633 6.48351 69.8584 6.18125 68.9328 6.18125C67.9882 6.18125 67.2326 6.48351 66.647 7.06913C66.0614 7.65475 65.7591 8.42927 65.7591 9.35493V20.4439H61.8865V9.77053C61.8865 7.46584 62.4721 5.72787 63.6433 4.51885Z" fill="#2233B0"/>
<path d="M92.9998 3.10205V20.4439H89.1272V3.10205H92.9998Z" fill="#2233B0"/>
<path d="M14.6026 21.0296C14.527 21.0296 14.4326 21.0296 14.357 21.0296C13.0535 20.954 11.8823 20.3873 11.1078 19.3861C9.97432 17.9692 9.65317 15.8535 10.1443 13.0387C10.4655 11.1496 11.1456 9.22275 12.2034 7.56035C11.5423 7.12586 10.8244 6.86139 10.0877 6.80471C8.36859 6.69137 7.00844 7.10697 6.02611 8.01373C4.72264 9.24164 4.02368 11.4897 4.02368 14.4933V20.4251H0.0187988V14.4933C0.0187988 10.2806 1.11447 7.12586 3.28693 5.08564C5.08157 3.40435 7.5185 2.61093 10.3521 2.79984C12.0145 2.91318 13.5825 3.55548 14.9237 4.59448C16.095 3.57437 17.5874 2.93208 19.6465 2.59204L20.7799 6.06797C19.6087 6.33244 18.2108 7.06919 17.6062 7.61702C18.5319 9.14719 19.1742 10.9418 19.4387 12.9065C19.9298 16.5335 18.9097 18.5171 17.9652 19.5372C17.0584 20.5006 15.8872 21.0296 14.6026 21.0296ZM14.8482 10.3751C14.1303 11.3008 13.7903 13.0387 13.6769 13.7377C13.2802 16.0613 13.8281 17.3081 14.4326 17.3081C14.9993 17.3081 15.8305 16.1935 15.6227 13.6999C15.5471 12.8498 15.2071 11.1685 14.8482 10.3751Z" fill="#2233B0"/>
</svg>
